<svg width="146" height="124" viewBox="0 0 146 124" fill="none" xmlns="http://www.w3.org/2000/svg">
<g clip-path="url(#clip0_109_130)">
<path d="M83.1735 109.7C82.1639 108.211 80.7973 107.121 79.0791 106.713C77.5809 106.358 76.0404 106.418 74.5174 106.431L55.2606 106.587C53.6113 106.6 52.0301 108.106 52.1067 109.909C52.1827 111.698 53.4928 113.246 55.2606 113.232C60.9015 113.186 66.5424 113.14 72.1833 113.094C73.5132 113.083 74.8438 113.058 76.1738 113.063C76.4724 113.064 76.7698 113.08 77.0682 113.084C77.1405 113.085 77.1927 113.084 77.2295 113.082C77.2388 113.085 77.2466 113.088 77.2586 113.092C77.4142 113.137 77.5739 113.168 77.7305 113.21C77.6756 113.212 77.832 113.315 77.9106 113.35C77.9214 113.372 77.9444 113.412 77.9828 113.473C78.0364 113.579 78.1951 113.901 78.2016 113.891C78.4401 114.526 78.6368 115.177 78.7904 115.841C79.1569 117.304 79.2375 117.61 79.2902 118.983C79.3569 120.717 80.6931 122.388 82.4441 122.305C84.0957 122.227 85.6695 120.843 85.598 118.983C85.4775 115.849 84.9552 112.328 83.1735 109.7Z" fill="#E6E6E6"/>
<path d="M56.3926 117.197C56.0309 114.888 55.6761 112.578 55.3074 110.27C54.9332 107.929 54.1691 105.785 52.4397 104.249C51.9776 103.838 51.4985 103.455 51.0174 103.073C50.8482 102.939 50.6793 102.804 50.5121 102.667C50.5021 102.659 50.4957 102.654 50.487 102.647C50.4686 102.63 50.4466 102.61 50.417 102.584C49.6962 101.941 48.9997 101.27 48.3363 100.556C47.7471 99.9228 47.1837 99.2621 46.646 98.5745C46.5117 98.4027 46.379 98.2294 46.2481 98.0546C46.2256 98.0245 46.1044 97.8594 46.0245 97.7517C45.9502 97.6439 45.8144 97.4491 45.7915 97.4151C45.6386 97.1873 45.4884 96.9574 45.3409 96.7254C44.3364 95.14 43.4666 93.4643 42.7415 91.7179C42.6696 91.5447 42.5994 91.3705 42.5309 91.1953C42.5125 91.1418 42.4888 91.0731 42.4572 90.9816C42.3111 90.5584 42.1653 90.1357 42.0317 89.7074C41.7479 88.7978 41.5038 87.8747 41.2996 86.9382C41.1987 86.4758 41.1078 86.011 41.027 85.5439C40.9853 85.3037 40.9463 85.063 40.91 84.8218C40.904 84.7817 40.8686 84.5215 40.8477 84.3744C40.8323 84.2267 40.8037 83.965 40.7998 83.9246C40.7767 83.6815 40.7562 83.4381 40.7383 83.1945C40.698 82.6463 40.6707 82.0972 40.6565 81.5471C40.6322 80.5696 40.6489 79.5922 40.7064 78.6148C40.7391 78.0657 40.7857 77.518 40.843 76.9713C40.8465 76.9377 40.8492 76.911 40.8517 76.8869C40.8552 76.8625 40.8592 76.8347 40.864 76.8002C40.9065 76.4981 40.9511 76.1964 41.0011 75.8956C41.1902 74.7537 41.4363 73.623 41.7381 72.5082C41.8811 71.981 42.0363 71.4581 42.2039 70.9394C42.2786 70.7092 42.3556 70.4798 42.4351 70.2513C42.4299 70.2661 42.6681 69.6251 42.6713 69.6036C43.6164 67.2512 45.1624 65.1066 45.1645 62.4344C45.1659 60.6251 43.7129 58.892 42.0106 58.9756C41.1619 59.0092 40.3588 59.3886 39.7704 60.0339C39.1821 60.6791 38.8545 61.5397 38.8567 62.4344C38.8567 62.475 38.8566 62.5097 38.8565 62.5433C38.8406 62.5996 38.8273 62.6466 38.8154 62.6882C38.631 63.1101 38.4052 63.5111 38.2029 63.9225C37.6489 65.0487 37.1761 66.2118 36.7269 67.3919C35.9915 69.3138 35.4286 71.304 35.0456 73.3364C34.2131 77.7896 34.1484 82.3643 34.8548 86.8416C36.0777 94.6933 40.1103 102.209 45.7166 107.261C46.2031 107.7 46.7015 108.123 47.2046 108.538C47.4128 108.71 47.6227 108.879 47.8337 109.046C47.9334 109.125 48.3465 109.469 48.1648 109.302C48.5555 109.654 48.72 109.83 48.8204 110.089C48.8349 110.149 48.8548 110.23 48.8816 110.341C48.9524 110.632 49.0195 110.924 49.0754 111.22C49.5633 113.805 49.9025 116.434 50.3101 119.036C50.5903 120.824 52.6799 121.988 54.1898 121.452C55.9473 120.828 56.6928 119.113 56.3926 117.197Z" fill="#E6E6E6"/>
<path d="M83.4927 123.903C82.1681 123.907 80.8963 123.357 79.9562 122.374C79.0161 121.391 78.4845 120.055 78.478 118.66V114.87C74.7113 115.314 61.8131 115.211 58.1158 114.586V118.508C58.1059 119.902 57.5732 121.236 56.6338 122.218C55.6945 123.2 54.4246 123.751 53.1011 123.751C51.7776 123.751 50.5078 123.2 49.5684 122.218C48.6291 121.236 48.0963 119.902 48.0864 118.508V110.806C43.0788 107.876 38.9042 103.591 35.9935 98.3935C33.0829 93.1961 31.5415 87.2747 31.5286 81.2403C31.5286 70.8934 35.9801 61.2412 43.7417 54.7587C48.7883 50.5295 54.9198 47.9861 61.3487 47.4551C62.2214 47.383 63.0993 47.3465 63.9583 47.3465C66.9845 47.3465 80.6381 47.839 84.0639 48.8772L91.8752 40.7123C91.9901 40.5906 92.1367 40.5077 92.2964 40.4742C92.4562 40.4406 92.6218 40.458 92.7721 40.524C92.9236 40.5875 93.0533 40.6977 93.1442 40.8403C93.2351 40.9828 93.283 41.151 93.2815 41.3227V42.6209L94.8026 41.0341C94.9172 40.9123 95.0637 40.8293 95.2233 40.7957C95.383 40.7621 95.5485 40.7794 95.6987 40.8455C95.8503 40.9089 95.9802 41.0192 96.0712 41.1618C96.1622 41.3044 96.2102 41.4727 96.2088 41.6445V56.1515C100.128 59.8739 103.116 64.5572 104.906 69.7866C106.697 75.016 107.235 80.6298 106.473 86.1308C105.712 91.6317 103.674 96.8497 100.54 101.322C97.4059 105.795 93.273 109.385 88.5073 111.772V118.66C88.5008 120.055 87.9692 121.391 87.0291 122.374C86.089 123.357 84.8172 123.906 83.4927 123.903V123.903ZM78.8722 114.399V118.66C78.8822 119.944 79.3734 121.172 80.2388 122.076C81.1042 122.98 82.2737 123.487 83.4927 123.487C84.7116 123.487 85.8811 122.98 86.7466 122.076C87.612 121.172 88.1031 119.944 88.1131 118.66V111.51L88.2256 111.454C93.573 108.781 98.1124 104.599 101.34 99.3728C105.453 92.7035 107.163 84.7037 106.162 76.821C105.16 68.9384 101.513 61.6939 95.88 56.3987L95.8145 56.3368V41.6445C95.8159 41.5553 95.7913 41.4677 95.744 41.3936C95.6967 41.3195 95.629 41.2625 95.55 41.2301C95.4715 41.1948 95.3847 41.1852 95.3009 41.2028C95.2171 41.2203 95.1403 41.2641 95.0806 41.3284L92.8873 43.6167V41.3227C92.8887 41.2334 92.8641 41.1459 92.8168 41.0718C92.7695 40.9977 92.7018 40.9406 92.6228 40.9083C92.5441 40.873 92.4571 40.8636 92.3732 40.8812C92.2893 40.8989 92.2124 40.9428 92.1526 41.0073L84.174 49.347L84.0607 49.3096C80.876 48.2596 67.0075 47.7618 63.9583 47.7618C63.1095 47.7618 62.2419 47.7979 61.3797 47.8692C55.0288 48.3937 48.9718 50.9062 43.9867 55.084C36.3199 61.4873 31.9228 71.0209 31.9228 81.2403C31.9359 87.2213 33.469 93.0895 36.3628 98.2353C39.2567 103.381 43.4057 107.617 48.379 110.503L48.4807 110.562V118.508C48.4908 119.792 48.9821 121.02 49.8475 121.924C50.7129 122.828 51.8823 123.335 53.1011 123.335C54.3199 123.335 55.4893 122.828 56.3548 121.924C57.2202 121.02 57.7114 119.792 57.7216 118.508V114.088L57.9551 114.135C61.2777 114.793 75.2683 114.897 78.6495 114.43L78.8722 114.399Z" fill="#3F3D56"/>
<path d="M56.7694 24.7343L34.9406 31.6447C34.2463 31.8654 33.6636 32.3674 33.3204 33.0404C32.9772 33.7134 32.9017 34.5024 33.1104 35.234C33.3191 35.9656 33.795 36.5801 34.4335 36.9423C35.072 37.3046 35.8209 37.385 36.5156 37.166L55.6182 31.1173L56.0184 30.9907C56.0994 28.8184 56.6588 26.6957 57.6525 24.7904C57.5278 24.7313 57.3945 24.6948 57.2583 24.6824C57.0937 24.6656 56.9276 24.6833 56.7694 24.7343Z" fill="#FF6600"/>
<path d="M36.138 38.639C35.8483 38.6382 35.566 38.5416 35.3313 38.3627C35.0965 38.1838 34.921 37.9317 34.8296 37.642L33.4646 33.3031C33.4076 33.1219 33.385 32.9306 33.3982 32.7403C33.4113 32.5499 33.46 32.3641 33.5413 32.1935C33.6226 32.0229 33.7351 31.8709 33.8722 31.7461C34.0093 31.6213 34.1684 31.5262 34.3404 31.4661L52.1069 25.2638C52.2789 25.2037 52.4604 25.1799 52.6411 25.1938C52.8218 25.2076 52.9982 25.2588 53.1601 25.3445C53.3221 25.4301 53.4664 25.5485 53.5849 25.6929C53.7034 25.8373 53.7937 26.0049 53.8507 26.1861L55.2157 30.525C55.3293 30.8819 55.3065 31.2713 55.1522 31.6108C54.998 31.9503 54.7243 32.2132 54.3892 32.3439C54.3728 32.3503 54.3562 32.3565 54.3395 32.3622L36.5734 38.5644C36.433 38.6137 36.286 38.6389 36.138 38.639Z" fill="#2F2E41"/>
<path d="M69.4105 17.0283C65.8247 17.0298 62.3802 18.501 59.806 21.1305C57.2318 23.76 55.7299 27.3415 55.6182 31.117C55.6142 31.2644 55.6123 31.4139 55.6123 31.5634C55.6123 34.4382 56.4215 37.2484 57.9377 39.6387C59.4539 42.029 61.6089 43.892 64.1302 44.9921C66.6515 46.0922 69.4258 46.3801 72.1024 45.8192C74.779 45.2584 77.2376 43.8741 79.1673 41.8413C81.097 39.8085 82.4112 37.2186 82.9436 34.3991C83.476 31.5795 83.2028 28.657 82.1584 26.0011C81.1141 23.3451 79.3455 21.0751 77.0764 19.4779C74.8073 17.8808 72.1395 17.0283 69.4105 17.0283V17.0283ZM69.4105 45.6832C65.8567 45.6793 62.4495 44.1905 59.9366 41.5433C57.4236 38.8962 56.0102 35.307 56.0065 31.5634C56.0065 31.3703 56.0105 31.1793 56.0184 30.9903C56.1251 28.2245 57.0013 25.5527 58.538 23.3072C60.0747 21.0616 62.204 19.3415 64.6613 18.3606C67.1186 17.3797 69.7954 17.1813 72.3589 17.7902C74.9224 18.399 77.2594 19.7882 79.0794 21.7849C80.8994 23.7817 82.122 26.298 82.5953 29.0208C83.0686 31.7437 82.7716 34.5531 81.7413 37.0996C80.7111 39.6461 78.9929 41.8174 76.8006 43.3436C74.6082 44.8697 72.0383 45.6833 69.4105 45.6832V45.6832Z" fill="#3F3D56"/>
<path d="M81.0404 31.5635C81.0404 34.8126 79.8151 37.9287 77.634 40.2262C75.453 42.5238 72.4949 43.8145 69.4104 43.8145C66.326 43.8145 63.3679 42.5238 61.1868 40.2262C59.0058 37.9287 57.7805 34.8126 57.7805 31.5635C57.7805 31.1752 57.7982 30.7931 57.8317 30.4152C58.112 27.2794 59.528 24.3778 61.7857 22.3128C64.0434 20.2479 66.9694 19.1782 69.9561 19.326C72.9428 19.4738 75.7607 20.8276 77.8247 23.1064C79.8888 25.3852 81.0404 28.4138 81.0404 31.5635V31.5635Z" fill="#E6E6E6"/>
<path d="M72.8738 32.3775C72.5918 31.9871 72.221 31.6779 71.7956 31.4784C71.2708 31.2455 70.7289 31.058 70.1752 30.9178V27.583C71.0263 27.7182 71.8245 28.1016 72.4795 28.6898L73.1222 27.2466C72.7526 26.8998 72.3283 26.6236 71.8684 26.4306C71.3588 26.2132 70.8238 26.0686 70.2777 26.0008V24.3105H68.7895V26.0174C68.2149 26.0854 67.6605 26.2815 67.1633 26.5926C66.7142 26.8726 66.3361 27.263 66.0614 27.7305C65.7992 28.1866 65.6634 28.711 65.6692 29.2442C65.6436 29.822 65.8025 30.3923 66.1206 30.8638C66.4133 31.2721 66.8 31.5951 67.2441 31.8024C67.7772 32.0422 68.3284 32.2346 68.892 32.3775V35.5732C67.8877 35.4934 66.9307 35.0912 66.1501 34.4208L65.5076 35.866C65.944 36.2461 66.4404 36.5427 66.9741 36.7422C67.5589 36.9627 68.1698 37.0968 68.7896 37.1409V38.8166H70.2777V37.1098C71.1044 37.0146 71.8796 36.6402 72.4874 36.0425C72.7551 35.772 72.9666 35.446 73.1084 35.085C73.2503 34.724 73.3194 34.3359 73.3114 33.9453C73.3361 33.3858 73.182 32.8338 72.8738 32.3775V32.3775ZM68.892 30.5648C68.5295 30.449 68.1925 30.2584 67.9005 30.0042C67.7848 29.8957 67.6934 29.7617 67.6327 29.6116C67.5721 29.4615 67.5437 29.2992 67.5497 29.1362C67.5389 28.7664 67.6679 28.4072 67.9084 28.1374C68.175 27.8545 68.5189 27.6664 68.892 27.5996V30.5648ZM71.1096 34.9835C70.8581 35.2551 70.5307 35.4349 70.1752 35.4964V32.7471C70.515 32.8432 70.8328 33.0106 71.1096 33.2393C71.2145 33.3337 71.2979 33.4518 71.3535 33.5848C71.4091 33.7178 71.4356 33.8623 71.4309 34.0075C71.4446 34.3639 71.3298 34.7125 71.1096 34.9835V34.9835Z" fill="#FF6600"/>
<path d="M36.7715 56.2242C36.4668 56.2237 36.1708 56.1173 35.9293 55.9215C35.6879 55.7257 35.5145 55.4514 35.4361 55.1412L34.6929 52.1781C34.5999 51.8057 34.6509 51.4096 34.8347 51.0767C35.0186 50.7438 35.3203 50.5014 35.6736 50.4025L59.1189 43.8763C59.4727 43.7791 59.8486 43.8334 60.1645 44.0274C60.4804 44.2214 60.7105 44.5392 60.8044 44.9115L61.434 47.4219L61.316 47.4315C55.303 47.924 49.5498 50.2205 44.737 54.0494L44.7028 54.0668L37.1216 56.1764C37.0074 56.2081 36.8897 56.2242 36.7715 56.2242V56.2242Z" fill="#2F2E41"/>
<path d="M32.8886 70.8603C30.1384 70.4323 27.508 69.3846 25.177 67.7888C24.0221 66.9988 22.953 66.0776 21.9888 65.042C21.0371 64.0195 20.1267 62.8573 19.6553 61.4956C19.2018 60.2357 19.2252 58.8405 19.7206 57.5983C20.2093 56.3636 21.1428 55.3835 22.3164 54.8728C23.4971 54.3768 24.9235 54.3238 26.0726 54.867C26.6201 55.1198 27.0939 55.5215 27.4454 56.031C27.6087 56.2659 27.7297 56.5304 27.8022 56.8113C27.8695 57.0659 27.8756 57.3342 27.82 57.5919C27.7527 57.8492 27.6338 58.0883 27.4715 58.2933C27.3092 58.4982 27.1072 58.6643 26.879 58.7802C26.3768 59.0517 25.8326 59.2265 25.2721 59.2965C24.7083 59.3775 23.8984 59.4512 23.4452 58.9745C23.3519 58.8801 23.2785 58.7662 23.2298 58.64C23.1958 58.5434 23.1841 58.4395 23.1959 58.3372C23.1892 58.3823 23.2232 58.2391 23.2213 58.2448C23.2141 58.266 23.1831 58.3176 23.2272 58.2383C23.241 58.2122 23.2563 58.187 23.2731 58.163C23.2582 58.1834 23.2252 58.2174 23.284 58.159C23.3326 58.103 23.395 58.0624 23.4642 58.0418C23.4915 58.0334 23.5192 58.0268 23.5465 58.0189C23.6161 57.9989 23.4772 58.02 23.5484 58.0176C23.5758 58.0167 23.6036 58.0174 23.631 58.0161C23.7007 58.0128 23.5621 57.996 23.629 58.0137C23.655 58.0206 23.6807 58.0273 23.7063 58.0358C23.7619 58.0543 23.6669 57.9928 23.7046 58.0388C23.7487 58.0927 23.6582 57.9864 23.7084 58.0386C23.7334 58.0644 23.7569 58.0918 23.7789 58.1204C23.8659 58.211 23.9833 58.2617 24.1056 58.2617C24.2279 58.2617 24.3453 58.211 24.4323 58.1204C24.5164 58.0278 24.5633 57.9045 24.5633 57.7763C24.5633 57.6481 24.5164 57.5248 24.4323 57.4321C23.9767 56.8371 23.0768 56.9841 22.6159 57.487C22.0281 58.1283 22.2608 59.1447 22.8326 59.7042C23.4799 60.3377 24.3966 60.3817 25.2292 60.2755C25.9329 60.2045 26.6186 60.0004 27.2534 59.6729C27.8842 59.3464 28.3776 58.7849 28.638 58.0973C28.7556 57.7302 28.7978 57.3411 28.7619 56.9556C28.726 56.5702 28.6128 56.1971 28.4298 55.8612C27.6947 54.4053 26.1725 53.6589 24.6679 53.5296C23.8933 53.4657 23.1143 53.5643 22.3761 53.8196C21.6378 54.0749 20.955 54.4818 20.367 55.017C19.2338 56.0917 18.536 57.584 18.4179 59.1854C18.2866 60.8458 18.8981 62.4582 19.7897 63.7981C20.7231 65.1595 21.8369 66.373 23.0972 67.4014C25.5611 69.4735 28.4511 70.9093 31.5362 71.5939C31.9031 71.6738 32.2721 71.7421 32.643 71.799C32.761 71.8291 32.8854 71.8107 32.991 71.7476C33.0966 71.6844 33.1754 71.5812 33.2113 71.459C33.243 71.3346 33.2269 71.202 33.1665 71.09C33.1061 70.9779 33.0063 70.8954 32.8886 70.8603L32.8886 70.8603Z" fill="#3F3D56"/>
<path d="M76.9218 49.706C72.8923 49.6461 68.8755 49.7538 64.8714 50.0292C63.5028 50.1233 62.3186 50.6329 62.3186 51.4893C62.3186 52.2054 63.4933 53.0443 64.8714 52.9495C68.8735 52.6742 72.8903 52.5665 76.9218 52.6263C80.2085 52.6752 80.2066 49.7548 76.9218 49.706Z" fill="#CCCCCC"/>
<path d="M70.9662 52.4818C70.5307 52.4818 60.301 52.4647 60.301 50.9762C60.301 49.4878 70.5307 49.4707 70.9662 49.4707C71.4017 49.4707 81.6314 49.4878 81.6314 50.9762C81.6314 52.4647 71.4017 52.4818 70.9662 52.4818ZM60.701 50.9762C60.981 51.4275 64.7412 52.0666 70.9662 52.0666C77.1912 52.0666 80.9514 51.4275 81.2314 50.9762C80.9514 50.525 77.1912 49.886 70.9662 49.886C64.7412 49.886 60.981 50.525 60.701 50.9762V50.9762Z" fill="#3F3D56"/>
<path d="M103.422 91.6126C105.687 91.5464 108.505 91.4636 110.676 89.7928C111.323 89.2749 111.854 88.6143 112.233 87.8574C112.611 87.1004 112.828 86.2654 112.868 85.4108C112.913 84.0913 112.46 82.9396 111.594 82.1687C110.46 81.1592 108.804 80.9224 107.019 81.4749L108.868 67.2413L107.511 67.0454L105.337 83.7788L106.471 83.2309C107.785 82.596 109.589 82.2729 110.71 83.2707C110.985 83.5316 111.199 83.8558 111.336 84.2182C111.473 84.5806 111.529 84.9713 111.499 85.3601C111.466 85.9961 111.303 86.6171 111.022 87.1809C110.74 87.7447 110.347 88.238 109.868 88.6273C108.178 89.9274 105.932 90.0951 103.384 90.1702L103.422 91.6126Z" fill="#3F3D56"/>
<path d="M99.6695 68.4688H92.291V69.9119H99.6695V68.4688Z" fill="#3F3D56"/>
<path d="M40.1104 62.8616C39.782 62.8605 39.4647 62.7362 39.2153 62.5111C38.9659 62.2859 38.8008 61.9746 38.7495 61.6328L38.2991 58.6051C38.2429 58.2243 38.3323 57.8355 38.5479 57.5241C38.7634 57.2127 39.0874 57.0041 39.4488 56.944L63.4047 52.99C63.7662 52.9307 64.1352 53.0249 64.4308 53.252C64.7264 53.479 64.9244 53.8203 64.9815 54.2009L65.4318 57.2288C65.4881 57.6096 65.3987 57.9984 65.1831 58.3098C64.9676 58.6212 64.6436 58.8298 64.2823 58.8899L40.3263 62.8438C40.2549 62.8556 40.1827 62.8615 40.1104 62.8616Z" fill="#2F2E41"/>
<path d="M30.1963 27.3789C35.7484 27.3789 40.2493 22.6377 40.2493 16.7891C40.2493 10.9405 35.7484 6.19922 30.1963 6.19922C24.6442 6.19922 20.1433 10.9405 20.1433 16.7891C20.1433 22.6377 24.6442 27.3789 30.1963 27.3789Z" fill="#FF6600"/>
<path d="M35.8881 19.5292C36.2094 19.4108 36.5029 19.2213 36.7489 18.9735C36.9116 18.7968 37.0358 18.5848 37.1125 18.3522C37.1893 18.1197 37.2169 17.8723 37.1934 17.6273C37.1797 17.4527 37.1279 17.2839 37.042 17.1339C36.9561 16.9839 36.8384 16.8568 36.6982 16.7627C36.3344 16.527 35.8536 16.5359 35.3682 16.7729L35.3122 12.6392L34.918 12.6451L34.9839 17.5047L35.284 17.2974C35.6319 17.0574 36.1319 16.8834 36.4916 17.1164C36.5806 17.1781 36.6548 17.2606 36.7086 17.3575C36.7624 17.4543 36.7942 17.563 36.8017 17.6749C36.8183 17.8574 36.7973 18.0415 36.7403 18.2147C36.6833 18.3879 36.5915 18.5461 36.4712 18.6786C36.0439 19.1252 35.4114 19.2749 34.6895 19.4118L34.7593 19.8205C35.1431 19.7591 35.5209 19.6616 35.8881 19.5292V19.5292Z" fill="#2F2E41"/>
<path d="M39.3716 12.3487L37.2722 12.6836L37.3312 13.0942L39.4306 12.7592L39.3716 12.3487Z" fill="#2F2E41"/>
<path d="M32.7451 13.4058L30.6458 13.7407L30.7048 14.1513L32.8041 13.8164L32.7451 13.4058Z" fill="#2F2E41"/>
<path d="M36.8399 62.6766C36.4784 62.6758 36.1256 62.5591 35.8287 62.3419C35.5317 62.1247 35.3045 61.8174 35.1773 61.4609L28.2461 41.9072C27.3989 39.5091 27.4894 36.8549 28.4976 34.5269C29.5059 32.199 31.3496 30.3874 33.6243 29.4896L39.2602 27.2728C39.4781 27.1865 39.7101 27.1464 39.9428 27.1549C40.1755 27.1634 40.4043 27.2203 40.616 27.3224C40.8272 27.4218 41.0175 27.5645 41.1757 27.7423C41.3339 27.92 41.457 28.1292 41.5376 28.3576L54.3771 53.8945C54.4605 54.1248 54.4998 54.3702 54.4928 54.6165C54.4858 54.8629 54.4326 55.1053 54.3363 55.3299C54.24 55.5545 54.1025 55.7568 53.9316 55.9252C53.7608 56.0936 53.5601 56.2248 53.3409 56.3111L37.4599 62.5579C37.2617 62.6362 37.0517 62.6765 36.8399 62.6766Z" fill="#2F2E41"/>
<path d="M37.55 27.9456L50.2895 45.8914L41.6693 28.1339C41.5981 27.9268 41.4888 27.7364 41.3478 27.5737C41.2067 27.4109 41.0366 27.2791 40.8472 27.1857C40.6577 27.0922 40.4527 27.039 40.2437 27.0291C40.0348 27.0191 39.826 27.0526 39.6293 27.1277L37.55 27.9456Z" fill="#E6E6E6"/>
<path d="M57.7215 41.5739L34.9751 40.0305C34.6165 40.0062 34.266 39.9077 33.9436 39.7407C33.6212 39.5737 33.3332 39.3414 33.096 39.0571C32.8588 38.7729 32.6771 38.4422 32.5612 38.0839C32.4454 37.7257 32.3976 37.3469 32.4207 36.9692C32.4438 36.5915 32.5373 36.2223 32.6958 35.8827C32.8544 35.5431 33.0748 35.2397 33.3447 34.9898C33.6146 34.7399 33.9285 34.5485 34.2686 34.4265C34.6087 34.3044 34.9682 34.2541 35.3268 34.2784L58.0732 35.8218C58.2411 35.8331 58.4053 35.8792 58.5563 35.9574C58.7072 36.0357 58.8421 36.1444 58.9532 36.2775C59.0643 36.4107 59.1494 36.5655 59.2037 36.7333C59.2579 36.9011 59.2803 37.0785 59.2695 37.2554L59.0825 40.3138C59.0606 40.671 58.905 41.0044 58.6497 41.2408C58.3945 41.4771 58.0606 41.5969 57.7215 41.5739Z" fill="#FF6600"/>
<path d="M51.6434 42.5633C51.6133 42.5633 51.5832 42.5622 51.553 42.5602H51.553L32.8749 41.2929C32.6941 41.2806 32.5173 41.231 32.3547 41.1467C32.1921 41.0625 32.0468 40.9454 31.9272 40.802C31.8075 40.6587 31.7159 40.4919 31.6575 40.3112C31.599 40.1305 31.5749 39.9395 31.5866 39.749L31.906 34.525C31.9176 34.3346 31.9648 34.1484 32.0448 33.9771C32.1247 33.8058 32.236 33.6528 32.3721 33.5268C32.5082 33.4007 32.6665 33.3042 32.838 33.2427C33.0096 33.1811 33.1909 33.1558 33.3718 33.1681L52.0498 34.4353C52.4148 34.4605 52.7555 34.6372 52.997 34.9266C53.2385 35.2161 53.3612 35.5946 53.3381 35.9792L53.0187 41.2032C53.0011 41.4831 52.9072 41.7518 52.7482 41.9768C52.5893 42.2019 52.372 42.3739 52.1226 42.4721C51.9693 42.5325 51.807 42.5634 51.6434 42.5633V42.5633Z" fill="#2F2E41"/>
<path d="M30.081 9.74692C31.4035 8.54875 33.2196 9.62059 34.7363 9.43296C36.1873 9.25344 37.333 7.88237 37.6257 6.42578C37.9672 4.72642 37.1299 3.02391 35.8957 1.96439C34.544 0.803949 32.7513 0.470815 31.0524 0.685505C29.1054 0.931563 27.3247 1.88763 25.7269 3.04404C24.1847 4.12568 22.7664 5.39168 21.5004 6.81676C20.3668 8.13565 19.4063 9.70773 19.0996 11.4825C18.8208 13.0954 19.0337 14.8827 19.9388 16.249C20.4188 16.9493 21.0619 17.5075 21.8063 17.8697C22.5825 18.2712 23.4104 18.5582 24.1623 19.0121C25.2992 19.6984 26.4042 21.1215 26.0481 22.6025C25.9717 22.926 25.821 23.2248 25.6093 23.4725C25.3549 23.77 24.896 23.3769 25.1511 23.0786C25.5991 22.5547 25.5814 21.856 25.3427 21.2305C25.0588 20.5257 24.556 19.9433 23.9168 19.5788C23.1297 19.1048 22.2608 18.8122 21.454 18.3804C20.6819 17.986 20.0116 17.4009 19.5003 16.6748C18.5348 15.2614 18.246 13.4219 18.465 11.7202C18.7019 9.87877 19.6001 8.20541 20.726 6.80314C21.9514 5.27707 23.4565 3.98529 24.9941 2.82481C26.644 1.57959 28.4668 0.526854 30.4839 0.146094C32.2323 -0.183965 34.1275 0.0192405 35.6565 1.02296C37.0837 1.95987 38.1781 3.57154 38.2869 5.37242C38.326 6.19182 38.1571 7.00739 37.7976 7.73519C37.4381 8.46299 36.901 9.07674 36.2416 9.51328C35.5649 9.93982 34.7782 10.1318 33.9925 10.0622C33.1524 10.0055 32.3116 9.73454 31.4662 9.80977C31.0836 9.83423 30.7191 9.98939 30.4277 10.2517C30.1388 10.5135 29.7944 10.0066 30.081 9.74693V9.74692Z" fill="#2F2E41"/>
<path d="M145.765 124H0.234758C0.172628 124 0.113106 123.974 0.0692375 123.927C0.0253686 123.881 0.000732422 123.818 0.000732422 123.753C0.000732422 123.687 0.0253686 123.624 0.0692375 123.578C0.113106 123.532 0.172628 123.506 0.234758 123.505H145.765C145.828 123.505 145.887 123.531 145.931 123.578C145.975 123.624 146 123.687 146 123.753C146 123.818 145.975 123.881 145.931 123.927C145.887 123.974 145.828 124 145.765 124V124Z" fill="#3F3D56"/>
</g>
<defs>
<clipPath id="clip0_109_130">
<rect width="146" height="124" fill="white"/>
</clipPath>
</defs>
</svg>
