<svg width="467" height="471" viewBox="0 0 467 471" fill="none" xmlns="http://www.w3.org/2000/svg">
<path d="M117.803 451.977C117.287 452 116.777 451.865 116.342 451.589C115.906 451.312 115.565 450.909 115.366 450.432C115.167 449.956 115.119 449.43 115.229 448.925C115.339 448.42 115.601 447.962 115.979 447.611C116.043 447.359 116.088 447.177 116.152 446.925C115.659 445.671 114.803 444.593 113.694 443.829C112.584 443.065 111.273 442.65 109.926 442.637C108.58 442.625 107.261 443.015 106.137 443.757C105.014 444.5 104.138 445.562 103.621 446.807C100.639 453.794 96.7805 461.027 98.6997 468.722C86.0233 441.826 90.3342 408.37 109.068 385.369C114.246 382.513 118.444 377.439 119.536 371.548C116.973 372.417 113.778 370.331 115.705 367.628C116.54 366.595 117.384 365.57 118.219 364.537C108.484 354.158 96.8844 370.471 107.6 384.48C104.095 388.88 101.058 393.634 98.5405 398.666C99.122 393.323 98.428 387.918 96.5157 382.896C94.5777 378.215 90.9451 374.273 87.7462 370.227C83.8567 365.296 75.8517 367.571 75.3283 373.828C78.9178 375.009 79.3841 380.199 75.2782 380.91C76.3537 392.549 83.9492 403.246 94.4106 408.35C90.5473 419.202 89.0388 430.754 89.9855 442.235C88.139 428.817 73.7514 425.561 63.6952 420.227C63.0552 419.817 62.3095 419.601 61.5492 419.607C60.7888 419.613 60.0467 419.841 59.4133 420.262C58.78 420.683 58.2827 421.279 57.9822 421.979C57.6817 422.678 57.591 423.45 57.7211 424.2C59.1091 424.765 60.4376 425.466 61.687 426.294C62.2724 426.688 62.7218 427.254 62.9735 427.914C63.2252 428.573 63.2669 429.295 63.0929 429.979C62.9189 430.664 62.5378 431.278 62.0016 431.737C61.4655 432.196 60.8007 432.478 60.0983 432.544C65.1673 445.103 78.2727 453.537 91.7326 453.489C93.0261 459.117 94.9003 464.594 97.3249 469.833H117.302C117.374 469.611 117.438 469.382 117.503 469.159C115.654 469.276 113.797 469.165 111.975 468.83C116.867 463.031 120.651 460.072 117.803 451.977L117.803 451.977Z" fill="#F2F2F2"/>
<path d="M295.904 451.977C296.42 452 296.93 451.865 297.366 451.589C297.801 451.312 298.142 450.909 298.341 450.432C298.54 449.956 298.588 449.43 298.478 448.925C298.368 448.42 298.106 447.962 297.728 447.611C297.664 447.359 297.619 447.177 297.555 446.925C298.048 445.671 298.904 444.593 300.014 443.829C301.123 443.065 302.435 442.65 303.781 442.637C305.127 442.625 306.446 443.015 307.57 443.757C308.693 444.5 309.569 445.562 310.086 446.807C313.068 453.794 316.927 461.027 315.007 468.722C327.684 441.826 323.373 408.37 304.639 385.369C299.461 382.513 295.264 377.439 294.171 371.548C296.734 372.417 299.929 370.331 298.002 367.628C297.167 366.595 296.324 365.57 295.488 364.537C305.224 354.158 316.823 370.471 306.107 384.48C309.613 388.88 312.649 393.634 315.167 398.666C314.585 393.323 315.279 387.918 317.191 382.896C319.129 378.215 322.762 374.273 325.961 370.227C329.85 365.296 337.855 367.571 338.379 373.828C334.789 375.009 334.323 380.199 338.429 380.91C337.353 392.549 329.758 403.246 319.296 408.35C323.16 419.202 324.668 430.754 323.722 442.235C325.568 428.817 339.956 425.561 350.012 420.227C350.652 419.817 351.398 419.601 352.158 419.607C352.918 419.613 353.66 419.841 354.294 420.262C354.927 420.683 355.424 421.279 355.725 421.979C356.025 422.678 356.116 423.45 355.986 424.2C354.598 424.765 353.27 425.466 352.02 426.294C351.435 426.688 350.985 427.254 350.734 427.914C350.482 428.573 350.44 429.295 350.614 429.979C350.788 430.664 351.169 431.278 351.705 431.737C352.242 432.196 352.906 432.478 353.609 432.544C348.54 445.103 335.434 453.537 321.974 453.489C320.681 459.117 318.807 464.594 316.382 469.833H296.405C296.333 469.611 296.269 469.382 296.204 469.159C298.054 469.276 299.91 469.165 301.732 468.83C296.84 463.031 293.056 460.072 295.904 451.977L295.904 451.977Z" fill="#F2F2F2"/>
<path d="M303.312 454.946L294.708 456.905L283.064 424.616L295.762 421.724L303.312 454.946Z" fill="#FFB6B6"/>
<path d="M305.657 463.862L279.201 469.888L279.125 469.553C278.503 466.819 278.992 463.95 280.484 461.577C281.976 459.204 284.348 457.521 287.079 456.898L287.08 456.898L291.078 452.127L300.929 453.744L303.238 453.218L305.657 463.862Z" fill="#2F2E41"/>
<path d="M442.097 297.558L446.826 305.014L420.348 326.828L413.367 315.822L442.097 297.558Z" fill="#FFB6B6"/>
<path d="M449.7 292.355L464.246 315.285L463.956 315.469C461.592 316.972 458.728 317.473 455.994 316.863C453.261 316.252 450.881 314.579 449.379 312.212L449.379 312.212L443.548 310.042L441.765 300.209L440.495 298.207L449.7 292.355Z" fill="#2F2E41"/>
<path d="M167.854 217.838L165.729 205.508L198.035 190.904L205.011 178.538C204.786 177.453 204.864 176.326 205.238 175.283C205.612 174.24 206.267 173.321 207.13 172.627C207.993 171.933 209.031 171.491 210.13 171.35C211.228 171.21 212.343 171.376 213.353 171.83C214.363 172.284 215.227 173.009 215.852 173.925C216.476 174.84 216.835 175.911 216.89 177.017C216.944 178.124 216.692 179.225 216.161 180.198C215.63 181.17 214.841 181.977 213.881 182.529L202.404 200.292L167.854 217.838Z" fill="#A0616A"/>
<path d="M158.034 207.758L172.582 200.318L176.433 214.795L166.328 222.294L158.034 207.758Z" fill="#FF6600"/>
<path d="M125.389 453.825L134.185 453.824L138.37 419.857L125.387 419.858L125.389 453.825Z" fill="#A0616A"/>
<path d="M137.112 454.617V448.647L134.8 448.789L125.387 449.347L123.208 449.481L121.542 469.475L121.453 470.547H127.699L127.9 469.483L128.807 464.644L131.149 469.483L131.662 470.547H148.221C149.207 470.541 150.15 470.146 150.846 469.448C151.542 468.749 151.935 467.804 151.939 466.818C152.638 463.55 138.867 456.486 137.112 454.617Z" fill="#2F2E41"/>
<path d="M20.9739 319.024L18.9233 327.588L50.9415 339.582L53.9675 326.943L20.9739 319.024Z" fill="#A0616A"/>
<path d="M18.1667 330.253L23.9657 331.645L24.3675 329.361L26.02 320.066L26.3979 317.914L7.36473 311.631L6.3443 311.294L4.88801 317.374L5.87518 317.818L10.3636 319.829L5.11756 320.981L3.96395 321.233L0.103059 337.353C-0.120625 338.314 0.0432909 339.324 0.559245 340.165C1.0752 341.005 1.90151 341.608 2.85875 341.842C5.87004 343.285 15.9427 331.526 18.1667 330.253Z" fill="#2F2E41"/>
<path d="M138.99 233.994L127.668 228.695L105.089 256.05L91.3358 259.532C90.3494 259.029 89.2433 258.809 88.1396 258.895C87.0359 258.982 85.9776 259.372 85.0815 260.023C84.1855 260.674 83.4866 261.56 83.062 262.583C82.6374 263.607 82.5037 264.728 82.6757 265.823C82.8476 266.918 83.3185 267.944 84.0363 268.788C84.7541 269.631 85.6909 270.26 86.7432 270.604C87.7956 270.949 88.9224 270.995 89.9994 270.738C91.0764 270.482 92.0615 269.932 92.846 269.15L112.985 262.743L138.99 233.994Z" fill="#A0616A"/>
<path d="M299.508 132.729C297.108 132.729 294.762 132.017 292.767 130.682C290.771 129.347 289.216 127.45 288.297 125.23C287.379 123.01 287.139 120.568 287.607 118.211C288.075 115.855 289.231 113.69 290.928 111.991C292.625 110.292 294.787 109.135 297.141 108.667C299.495 108.198 301.935 108.438 304.152 109.358C306.369 110.277 308.264 111.834 309.598 113.832C310.931 115.83 311.643 118.179 311.643 120.581C311.639 123.802 310.36 126.89 308.085 129.167C305.81 131.445 302.725 132.726 299.508 132.729ZM299.508 109.827C297.384 109.827 295.307 110.458 293.54 111.64C291.774 112.821 290.397 114.501 289.584 116.466C288.771 118.431 288.558 120.593 288.973 122.679C289.387 124.765 290.41 126.681 291.913 128.185C293.415 129.689 295.329 130.714 297.413 131.129C299.496 131.543 301.656 131.33 303.619 130.517C305.582 129.703 307.26 128.324 308.44 126.556C309.62 124.787 310.25 122.708 310.25 120.581C310.247 117.73 309.114 114.997 307.1 112.981C305.087 110.964 302.356 109.83 299.508 109.827Z" fill="#E6E6E6"/>
<path d="M298.652 125.158C298.628 125.158 298.603 125.157 298.579 125.156C298.364 125.145 298.153 125.089 297.962 124.989C297.77 124.889 297.603 124.75 297.47 124.579L295.559 122.119C295.438 121.964 295.349 121.786 295.297 121.596C295.245 121.407 295.23 121.208 295.255 121.013C295.279 120.818 295.342 120.629 295.439 120.458C295.536 120.287 295.666 120.137 295.821 120.016L295.89 119.963C296.045 119.842 296.222 119.753 296.412 119.7C296.601 119.648 296.799 119.634 296.994 119.658C297.19 119.683 297.378 119.745 297.549 119.843C297.72 119.94 297.87 120.07 297.99 120.226C298.087 120.35 298.209 120.451 298.349 120.524C298.488 120.596 298.641 120.638 298.798 120.645C298.955 120.653 299.112 120.627 299.258 120.568C299.404 120.51 299.535 120.42 299.643 120.306L303.524 116.204C303.798 115.916 304.174 115.748 304.571 115.737C304.967 115.727 305.352 115.874 305.64 116.147L305.704 116.207C305.847 116.343 305.961 116.505 306.042 116.684C306.122 116.864 306.166 117.058 306.171 117.254C306.176 117.451 306.143 117.647 306.072 117.831C306.002 118.014 305.896 118.183 305.761 118.325L299.738 124.69C299.598 124.838 299.43 124.955 299.243 125.036C299.057 125.116 298.855 125.158 298.652 125.158Z" fill="#E6E6E6"/>
<path d="M238.933 279.807C236.533 279.807 234.187 279.095 232.191 277.76C230.196 276.425 228.64 274.528 227.722 272.308C226.803 270.088 226.563 267.646 227.031 265.289C227.499 262.933 228.655 260.768 230.352 259.069C232.049 257.37 234.211 256.213 236.565 255.745C238.919 255.276 241.359 255.517 243.576 256.436C245.794 257.355 247.689 258.912 249.022 260.91C250.355 262.908 251.067 265.257 251.067 267.659C251.063 270.88 249.784 273.968 247.509 276.245C245.234 278.523 242.15 279.804 238.933 279.807ZM238.933 256.905C236.808 256.905 234.731 257.536 232.965 258.718C231.198 259.899 229.821 261.579 229.008 263.544C228.195 265.509 227.983 267.671 228.397 269.757C228.812 271.843 229.835 273.76 231.337 275.264C232.839 276.767 234.753 277.792 236.837 278.207C238.921 278.622 241.081 278.409 243.043 277.595C245.006 276.781 246.684 275.402 247.864 273.634C249.045 271.865 249.675 269.786 249.675 267.659C249.671 264.808 248.539 262.075 246.525 260.059C244.511 258.043 241.781 256.909 238.933 256.905Z" fill="#E6E6E6"/>
<path d="M238.076 272.236C238.052 272.236 238.027 272.235 238.003 272.234C237.788 272.224 237.577 272.167 237.386 272.067C237.194 271.968 237.027 271.828 236.894 271.657L234.983 269.197C234.862 269.042 234.773 268.864 234.721 268.674C234.669 268.485 234.654 268.287 234.679 268.091C234.703 267.896 234.766 267.708 234.863 267.536C234.96 267.365 235.09 267.215 235.245 267.094L235.314 267.041C235.469 266.92 235.646 266.831 235.836 266.779C236.025 266.726 236.223 266.712 236.419 266.736C236.614 266.761 236.802 266.823 236.973 266.921C237.144 267.018 237.294 267.148 237.414 267.304C237.511 267.428 237.633 267.529 237.773 267.602C237.912 267.674 238.066 267.716 238.222 267.724C238.379 267.731 238.536 267.705 238.682 267.646C238.828 267.588 238.959 267.498 239.067 267.384L242.949 263.282C243.222 262.994 243.598 262.826 243.995 262.815C244.391 262.805 244.776 262.952 245.064 263.225L245.128 263.285C245.271 263.421 245.385 263.583 245.466 263.762C245.546 263.942 245.59 264.136 245.595 264.333C245.6 264.529 245.567 264.725 245.496 264.909C245.426 265.093 245.32 265.261 245.185 265.403L239.162 271.768C239.022 271.916 238.854 272.034 238.667 272.114C238.481 272.195 238.279 272.236 238.076 272.236Z" fill="#E6E6E6"/>
<path d="M105.944 116C103.544 116 101.198 115.287 99.2025 113.952C97.207 112.618 95.6517 110.72 94.7333 108.501C93.8148 106.281 93.5745 103.838 94.0427 101.482C94.5109 99.1252 95.6666 96.9606 97.3637 95.2617C99.0607 93.5628 101.223 92.4058 103.577 91.937C105.931 91.4683 108.37 91.7089 110.588 92.6283C112.805 93.5478 114.7 95.1048 116.034 97.1026C117.367 99.1003 118.079 101.449 118.079 103.852C118.075 107.072 116.795 110.16 114.52 112.438C112.246 114.715 109.161 115.996 105.944 116ZM105.944 93.0977C103.82 93.0977 101.743 93.7284 99.9762 94.9101C98.2097 96.0918 96.8328 97.7713 96.0198 99.7363C95.2068 101.701 94.994 103.864 95.4085 105.95C95.823 108.036 96.8461 109.952 98.3484 111.456C99.8507 112.96 101.765 113.984 103.848 114.399C105.932 114.814 108.092 114.601 110.055 113.787C112.018 112.973 113.695 111.595 114.876 109.826C116.056 108.058 116.686 105.979 116.686 103.852C116.683 101.001 115.55 98.2671 113.536 96.2511C111.522 94.235 108.792 93.101 105.944 93.0977Z" fill="#E6E6E6"/>
<path d="M105.088 108.428C105.064 108.428 105.039 108.428 105.015 108.426C104.799 108.416 104.589 108.359 104.397 108.26C104.206 108.16 104.038 108.02 103.906 107.85L101.994 105.389C101.874 105.234 101.785 105.057 101.733 104.867C101.68 104.677 101.666 104.479 101.69 104.284C101.715 104.088 101.777 103.9 101.875 103.729C101.972 103.558 102.102 103.408 102.257 103.287L102.326 103.233C102.481 103.112 102.658 103.023 102.848 102.971C103.037 102.919 103.235 102.904 103.43 102.929C103.625 102.953 103.814 103.016 103.985 103.113C104.155 103.21 104.306 103.341 104.426 103.496C104.523 103.62 104.645 103.722 104.784 103.794C104.924 103.867 105.077 103.908 105.234 103.916C105.391 103.924 105.548 103.897 105.694 103.839C105.84 103.78 105.971 103.691 106.079 103.577L109.96 99.4746C110.234 99.1865 110.61 99.0187 111.006 99.0079C111.403 98.9971 111.788 99.1442 112.076 99.417L112.14 99.4778C112.283 99.613 112.397 99.7752 112.477 99.9549C112.557 100.135 112.601 100.328 112.607 100.525C112.612 100.722 112.579 100.917 112.508 101.101C112.438 101.285 112.332 101.453 112.197 101.596L106.174 107.96C106.034 108.108 105.866 108.226 105.679 108.306C105.492 108.387 105.291 108.428 105.088 108.428Z" fill="#E6E6E6"/>
<path d="M203.093 324.975C174.954 324.975 142.616 293.715 114.005 308.568C27.3783 353.537 39.303 278.288 14.4158 250.302L15.2328 248.661C42.693 273.311 76.978 293.367 114.381 306.659C148.182 318.673 182.237 324.239 212.851 322.77L212.904 324.742C209.671 324.898 206.401 324.976 203.093 324.975Z" fill="#F2F2F2"/>
<path d="M164.494 113.622C167.742 113.622 170.376 110.087 170.376 105.726C170.376 101.365 167.742 97.8301 164.494 97.8301C161.246 97.8301 158.612 101.365 158.612 105.726C158.612 110.087 161.246 113.622 164.494 113.622Z" fill="#E6E6E6"/>
<path d="M232.427 236.798C229.738 238.592 226.986 234.323 229.727 232.609C232.416 230.815 235.168 235.084 232.427 236.798Z" fill="#E6E6E6"/>
<path d="M216.95 93.0774C221.179 93.0774 224.609 89.6445 224.609 85.4098C224.609 81.1751 221.179 77.7422 216.95 77.7422C212.72 77.7422 209.291 81.1751 209.291 85.4098C209.291 89.6445 212.72 93.0774 216.95 93.0774Z" fill="#FF6584"/>
<path opacity="0.3" d="M243.738 127.428L287.32 0L239.464 125.902C239.227 126.201 239.065 126.552 238.991 126.926C238.917 127.3 238.933 127.687 239.038 128.053C239.143 128.42 239.334 128.756 239.594 129.034C239.855 129.312 240.178 129.524 240.537 129.652C240.896 129.78 241.28 129.821 241.658 129.771C242.035 129.721 242.396 129.581 242.708 129.363C243.021 129.146 243.278 128.857 243.457 128.52C243.636 128.183 243.732 127.809 243.738 127.428H243.738Z" fill="#F0F0F0"/>
<path d="M199.747 282.672C203.863 282.672 207.199 279.332 207.199 275.212C207.199 271.091 203.863 267.751 199.747 267.751C195.632 267.751 192.295 271.091 192.295 275.212C192.295 279.332 195.632 282.672 199.747 282.672Z" fill="#F2F2F2"/>
<path d="M127.575 278.057C127.575 278.057 108.998 290.167 113.91 298.214C114.08 298.492 91.7203 328.056 91.7203 328.056L49.5108 325.374L48.0237 339.517L85.6015 350.412C85.6015 350.412 94.7946 357.174 101.896 349.724C108.998 342.274 132.654 319.461 132.654 319.461L133.795 365.52L121.92 429.345L139.65 428.219L156.908 364.188L163.278 291.656L127.575 278.057Z" fill="#2F2E41"/>
<path d="M140.808 205.376L132.996 211.303L124.092 230.328L132.654 241.969C132.654 241.969 139.856 254.465 128.328 266.567C116.8 278.668 107.947 291.593 117.174 291.131C126.402 290.67 163.773 309.699 164.018 294.109C164.264 278.519 164.762 266.567 164.762 266.567L174.56 241.688C174.56 241.688 180.397 226.847 176.299 222.404C172.2 217.962 166.713 212.285 166.713 212.285L156.734 202.294H147.724L140.808 205.376Z" fill="#FF6600"/>
<path d="M155.391 168.822C172.916 178.806 158.529 205.148 140.676 195.768C123.151 185.784 137.539 159.442 155.391 168.822Z" fill="#A0616A"/>
<path d="M164.762 174.358C163.534 175.957 160.968 175.207 155.944 176.348C155.955 174.643 155.758 172.943 155.358 171.286C154.985 173.338 154.165 175.282 152.959 176.983C148.596 177.467 153.944 190.735 151.71 200.491C148.832 179.91 142.779 185.302 145.837 189.384C147.795 191.997 146.489 199.837 140.616 195.917C130.925 200.528 117.123 177.624 132.42 166.883C132.147 161.077 138.6 160.159 142.574 161.945C152.218 154.752 163.236 163.968 164.762 174.358Z" fill="#2F2E41"/>
<path d="M119.795 159.34C115.894 183.357 94.98 154.923 85.1466 178.558C82.0548 187.117 87.3595 193.24 90.7149 200.344C91.4807 206.183 83.8937 209.145 83.099 214.52C82.8778 226.841 102.734 226.087 108.285 218.313C113.988 210.176 107.177 199.257 110.606 190.523C115.424 178.396 135.02 178.306 136.727 164.197C133.421 159.484 124.531 154.086 119.795 159.34Z" fill="#2F2E41"/>
<path d="M135.602 161.687C135.474 161.741 135.346 161.795 135.232 161.855H135.225C135.118 161.909 135.01 161.963 134.903 162.023C134.889 162.03 134.883 162.037 134.869 162.044C134.728 161.909 134.587 161.774 134.439 161.64C134.401 161.859 134.41 162.084 134.466 162.299L134.486 162.38C134.621 162.521 134.762 162.656 134.91 162.797C135.044 162.696 135.172 162.588 135.306 162.487C135.387 162.42 135.467 162.353 135.555 162.286C135.568 162.111 135.588 161.909 135.608 161.687L135.602 161.687ZM139.646 154.208C136.65 153.522 135.682 157.443 135.393 159.333C134.305 152.473 129.777 154.632 131.342 159.313C131.841 160.699 132.626 161.964 133.647 163.025C133.788 163.187 133.942 163.348 134.103 163.51C133.922 164.451 134.836 164.209 136.072 163.342C136.985 162.692 137.829 161.95 138.591 161.129C141.057 158.539 142.978 155.076 139.646 154.208ZM139.74 158.069C138.816 159.262 137.778 160.363 136.643 161.357C136.287 161.68 135.924 161.99 135.555 162.286C135.548 162.346 135.548 162.4 135.541 162.447C135.515 162.512 135.484 162.575 135.447 162.635C135.071 163.315 134.648 162.945 134.486 162.38C134.473 162.36 134.453 162.339 134.439 162.319C133.902 161.764 133.435 161.145 133.049 160.476C130.274 155.661 134.742 152.385 134.52 161.378C134.479 161.46 134.452 161.549 134.439 161.64C134.401 161.859 134.41 162.084 134.466 162.299L134.486 162.38C134.621 162.521 134.762 162.656 134.91 162.797C135.044 162.696 135.172 162.588 135.306 162.487C135.387 162.42 135.467 162.353 135.555 162.286C135.568 162.111 135.588 161.909 135.608 161.687V161.68C135.783 159.878 136.26 156.636 137.14 155.755C139.075 154.269 141.581 155.876 139.74 158.069ZM135.602 161.687C135.474 161.741 135.346 161.795 135.232 161.855H135.225C135.118 161.909 135.01 161.963 134.903 162.023C134.889 162.03 134.883 162.037 134.869 162.044C134.728 161.909 134.587 161.774 134.439 161.64C134.401 161.859 134.41 162.084 134.466 162.299L134.486 162.38C134.621 162.521 134.762 162.656 134.91 162.797C135.044 162.696 135.172 162.588 135.306 162.487C135.387 162.42 135.467 162.353 135.555 162.286C135.568 162.111 135.588 161.909 135.608 161.687L135.602 161.687Z" fill="#2F2E41"/>
<path d="M297.585 294.099L291.112 310.998L260.749 370.958L287.429 440.711L301.199 437.072L289.85 370.958L322.41 331.352L361.078 357.608C361.078 357.608 378.227 371.011 384.752 358.305C391.276 345.599 433.491 318.573 433.491 318.573L423.047 307.42L374.434 330.195L340.881 282.916L297.585 294.099Z" fill="#2F2E41"/>
<path d="M330.245 214.388L319.59 202.928L301.313 200.411L278.918 216.106L279.144 233.479L290.214 274.416C290.214 274.416 285.997 303.828 297.776 303.533C309.554 303.238 315.974 297.359 320.771 298.556C325.568 299.752 345.961 304.845 347.253 299.511C348.545 294.176 355.415 297.996 355.113 292.949C354.812 287.902 336.516 251.526 336.516 251.526L341.065 215.145L330.245 214.388Z" fill="#FF6600"/>
<path d="M397.708 161.635C397.803 162.585 397.689 163.545 397.374 164.446C397.059 165.348 396.55 166.169 395.883 166.853C395.217 167.536 394.408 168.065 393.516 168.402C392.623 168.738 391.667 168.875 390.716 168.802L366.213 215.454L359.635 205.344L384.68 161.315C384.908 159.723 385.712 158.271 386.938 157.232C388.165 156.194 389.73 155.642 391.335 155.682C392.941 155.721 394.477 156.349 395.652 157.446C396.826 158.543 397.558 160.034 397.708 161.635Z" fill="#FFB6B6"/>
<path d="M320.572 223.062C320.572 223.062 319.6 231.361 328.931 233.415C338.263 235.469 364.116 220.68 368.354 218.422C369.681 217.714 371.482 214.247 373.33 209.818C374.159 207.83 374.998 205.648 375.808 203.434C376.277 202.153 378.521 201.804 378.963 200.534C379.402 199.27 378.039 197.086 378.436 195.895C380.324 190.244 381.662 185.76 381.662 185.76L375.477 174.129C366.827 178.707 362.391 188.792 359.128 200.409L320.572 223.062Z" fill="#FF6600"/>
<path d="M211.591 172.348C211.736 173.292 212.086 174.192 212.617 174.986C213.147 175.78 213.845 176.448 214.662 176.942C215.478 177.437 216.393 177.746 217.341 177.849C218.29 177.951 219.249 177.844 220.152 177.535L255.537 216.563L259.378 205.127L224.124 168.774C223.505 167.29 222.364 166.085 220.917 165.387C219.47 164.689 217.817 164.547 216.272 164.988C214.727 165.428 213.397 166.421 212.534 167.777C211.672 169.134 211.336 170.76 211.591 172.348Z" fill="#FFB6B6"/>
<path d="M301.628 212.495C301.628 212.495 304.643 220.286 296.122 224.612C287.601 228.939 258.874 221.098 254.206 219.973C252.744 219.621 250.134 216.715 247.238 212.89C245.938 211.173 244.58 209.271 243.242 207.33C242.468 206.208 240.208 206.431 239.463 205.312C238.722 204.199 239.496 201.743 238.813 200.69C235.573 195.691 233.157 191.685 233.157 191.685L236.238 178.875C245.757 181.14 252.573 189.792 258.636 200.222L301.628 212.495Z" fill="#FF6600"/>
<path d="M310.816 197.495C320.42 197.495 328.206 189.701 328.206 180.085C328.206 170.47 320.42 162.676 310.816 162.676C301.212 162.676 293.426 170.47 293.426 180.085C293.426 189.701 301.212 197.495 310.816 197.495Z" fill="#FFB6B6"/>
<path d="M330.667 170.117C328.838 167.284 325.405 165.396 322.077 165.926C321.768 163.8 320.881 161.8 319.514 160.143C318.148 158.487 316.353 157.237 314.326 156.531C312.299 155.824 310.118 155.688 308.019 156.137C305.92 156.586 303.985 157.603 302.423 159.077C301.909 158.715 301.311 158.492 300.686 158.429C300.061 158.367 299.431 158.467 298.856 158.72C297.71 159.241 296.714 160.042 295.958 161.048C294.048 163.432 292.82 166.29 292.404 169.317C291.988 172.345 292.4 175.428 293.596 178.24C293.189 176.76 294.671 175.367 296.168 175.035C297.665 174.703 299.235 175.017 300.754 174.801C302.699 174.524 304.448 173.394 306.397 173.139C308.05 173.032 309.708 173.245 311.279 173.767C312.851 174.29 314.506 174.512 316.16 174.423C317.8 174.228 319.913 180.451 319.884 184.835C319.879 185.665 320.05 186.732 320.861 186.908C321.859 187.125 322.438 185.745 323.388 185.369C323.826 185.244 324.296 185.293 324.698 185.507C325.101 185.721 325.404 186.084 325.545 186.517C325.665 186.958 325.678 187.422 325.582 187.869C325.487 188.316 325.287 188.734 324.998 189.087C324.413 189.789 323.72 190.391 322.944 190.871L323.335 191.197C323.707 191.59 324.203 191.841 324.74 191.908C325.276 191.975 325.819 191.853 326.276 191.563C327.173 190.954 327.9 190.126 328.387 189.156C330.221 186.316 331.532 183.17 332.259 179.867C332.871 176.55 332.496 172.95 330.667 170.117Z" fill="#2F2E41"/>
<path d="M459.32 238.782C436.889 255.79 392.257 250.416 378.407 279.55C336.472 367.759 300.596 300.565 263.878 293.299L263.54 291.497C300.297 294.549 339.723 289.813 377.556 277.801C411.746 266.947 442.25 250.801 465.768 231.125L467 232.665C464.517 234.744 461.957 236.783 459.32 238.782Z" fill="#F2F2F2"/>
<path d="M364.483 469.811C363.948 471.395 58.9289 471.395 58.3525 469.815C58.8861 468.227 363.906 468.227 364.483 469.811Z" fill="#CCCCCC"/>
</svg>
