<svg width="70" height="69" viewBox="0 0 70 69" fill="none" xmlns="http://www.w3.org/2000/svg">
<circle cx="35.3592" cy="34.4729" r="34.4729" fill="#516BEB"/>
<path d="M30.6433 34.5569C30.4681 34.3754 30.2584 34.2307 30.0266 34.1311C29.7948 34.0315 29.5455 33.9791 29.2932 33.9769C29.0409 33.9747 28.7907 34.0228 28.5572 34.1183C28.3237 34.2139 28.1116 34.3549 27.9332 34.5333C27.7548 34.7117 27.6137 34.9239 27.5182 35.1574C27.4227 35.3909 27.3746 35.6411 27.3768 35.8934C27.379 36.1456 27.4314 36.395 27.531 36.6268C27.6305 36.8586 27.7753 37.0682 27.9567 37.2435L33.6567 42.9435C34.0131 43.2997 34.4962 43.4998 35 43.4998C35.5039 43.4998 35.987 43.2997 36.3433 42.9435L42.0434 37.2435C42.3895 36.8851 42.581 36.4052 42.5766 35.907C42.5723 35.4089 42.3725 34.9323 42.0202 34.58C41.6679 34.2278 41.1914 34.0279 40.6932 34.0236C40.195 34.0193 39.7151 34.2108 39.3568 34.5569L36.9 37.0136V26.4002H46.4001C47.4079 26.4002 48.3744 26.8006 49.0871 27.5132C49.7997 28.2258 50.2001 29.1924 50.2001 30.2002V43.5002C50.2001 44.508 49.7997 45.4746 49.0871 46.1872C48.3744 46.8998 47.4079 47.3002 46.4001 47.3002H23.6C22.5922 47.3002 21.6257 46.8998 20.913 46.1872C20.2004 45.4746 19.8 44.508 19.8 43.5002V30.2002C19.8 29.1924 20.2004 28.2258 20.913 27.5132C21.6257 26.8006 22.5922 26.4002 23.6 26.4002H33.1V37.0136L30.6433 34.5569ZM33.1 22.6002C33.1 22.0963 33.3002 21.613 33.6565 21.2567C34.0129 20.9004 34.4961 20.7002 35 20.7002C35.504 20.7002 35.9872 20.9004 36.3436 21.2567C36.6999 21.613 36.9 22.0963 36.9 22.6002V26.4002H33.1V22.6002Z" fill="white"/>
</svg>
