<svg width="70" height="69" viewBox="0 0 70 69" fill="none" xmlns="http://www.w3.org/2000/svg">
<circle cx="35.3592" cy="34.4729" r="34.4729" fill="#516BEB"/>
<path d="M19 29.1998C19 28.2981 19.4214 27.4333 20.1716 26.7956C20.9217 26.158 21.9391 25.7998 23 25.7998H47C48.0609 25.7998 49.0783 26.158 49.8284 26.7956C50.5786 27.4333 51 28.2981 51 29.1998V32.5998C49.9391 32.5998 48.9217 32.958 48.1716 33.5956C47.4214 34.2333 47 35.0981 47 35.9998C47 36.9015 47.4214 37.7663 48.1716 38.404C48.9217 39.0416 49.9391 39.3998 51 39.3998V42.7998C51 43.7015 50.5786 44.5663 49.8284 45.204C49.0783 45.8416 48.0609 46.1998 47 46.1998H23C21.9391 46.1998 20.9217 45.8416 20.1716 45.204C19.4214 44.5663 19 43.7015 19 42.7998V39.3998C20.0609 39.3998 21.0783 39.0416 21.8284 38.404C22.5786 37.7663 23 36.9015 23 35.9998C23 35.0981 22.5786 34.2333 21.8284 33.5956C21.0783 32.958 20.0609 32.5998 19 32.5998V29.1998Z" fill="white"/>
</svg>
