<svg width="70" height="69" viewBox="0 0 70 69" fill="none" xmlns="http://www.w3.org/2000/svg">
<circle cx="35.3592" cy="34.4729" r="34.4729" fill="#516BEB"/>
<path d="M22.8 17C21.527 17 20.3061 17.5057 19.4059 18.4059C18.5057 19.3061 18 20.527 18 21.8V26.6C18 27.873 18.5057 29.0939 19.4059 29.9941C20.3061 30.8943 21.527 31.4 22.8 31.4H27.6C28.873 31.4 30.0939 30.8943 30.9941 29.9941C31.8943 29.0939 32.4 27.873 32.4 26.6V21.8C32.4 20.527 31.8943 19.3061 30.9941 18.4059C30.0939 17.5057 28.873 17 27.6 17H22.8ZM22.8 36.2C21.527 36.2 20.3061 36.7057 19.4059 37.6059C18.5057 38.5061 18 39.727 18 41V45.8C18 47.073 18.5057 48.2939 19.4059 49.1941C20.3061 50.0943 21.527 50.6 22.8 50.6H27.6C28.873 50.6 30.0939 50.0943 30.9941 49.1941C31.8943 48.2939 32.4 47.073 32.4 45.8V41C32.4 39.727 31.8943 38.5061 30.9941 37.6059C30.0939 36.7057 28.873 36.2 27.6 36.2H22.8ZM37.2 21.8C37.2 20.527 37.7057 19.3061 38.6059 18.4059C39.5061 17.5057 40.727 17 42 17H46.8C48.073 17 49.2939 17.5057 50.1941 18.4059C51.0943 19.3061 51.6 20.527 51.6 21.8V26.6C51.6 27.873 51.0943 29.0939 50.1941 29.9941C49.2939 30.8943 48.073 31.4 46.8 31.4H42C40.727 31.4 39.5061 30.8943 38.6059 29.9941C37.7057 29.0939 37.2 27.873 37.2 26.6V21.8ZM37.2 41C37.2 39.727 37.7057 38.5061 38.6059 37.6059C39.5061 36.7057 40.727 36.2 42 36.2H46.8C48.073 36.2 49.2939 36.7057 50.1941 37.6059C51.0943 38.5061 51.6 39.727 51.6 41V45.8C51.6 47.073 51.0943 48.2939 50.1941 49.1941C49.2939 50.0943 48.073 50.6 46.8 50.6H42C40.727 50.6 39.5061 50.0943 38.6059 49.1941C37.7057 48.2939 37.2 47.073 37.2 45.8V41Z" fill="white"/>
</svg>
