<svg width="70" height="69" viewBox="0 0 70 69" fill="none" xmlns="http://www.w3.org/2000/svg">
<circle cx="35.4527" cy="34.4729" r="34.4729" fill="#516BEB"/>
<path d="M27.5001 20.7002C26.9962 20.7002 26.5129 20.9004 26.1566 21.2567C25.8003 21.613 25.6001 22.0963 25.6001 22.6002C25.6001 23.1041 25.8003 23.5874 26.1566 23.9437C26.5129 24.3 26.9962 24.5002 27.5001 24.5002C37.9938 24.5002 46.5001 33.0065 46.5001 43.5002C46.5001 44.0041 46.7003 44.4874 47.0566 44.8437C47.4129 45.2 47.8962 45.4002 48.4001 45.4002C48.904 45.4002 49.3873 45.2 49.7436 44.8437C50.0999 44.4874 50.3001 44.0041 50.3001 43.5002C50.3001 30.9089 40.0914 20.7002 27.5001 20.7002Z" fill="white"/>
<path d="M25.6 32.1002C25.6 31.5963 25.8001 31.113 26.1564 30.7567C26.5128 30.4004 26.996 30.2002 27.5 30.2002C31.0273 30.2002 34.4102 31.6014 36.9045 34.0957C39.3987 36.5899 40.8 39.9728 40.8 43.5002C40.8 44.0041 40.5998 44.4874 40.2435 44.8437C39.8871 45.2 39.4039 45.4002 38.9 45.4002C38.396 45.4002 37.9128 45.2 37.5564 44.8437C37.2001 44.4874 37 44.0041 37 43.5002C37 40.9806 35.9991 38.5643 34.2175 36.7827C32.4359 35.0011 30.0195 34.0002 27.5 34.0002C26.996 34.0002 26.5128 33.8 26.1564 33.4437C25.8001 33.0874 25.6 32.6041 25.6 32.1002ZM23.7 43.5002C23.7 42.4924 24.1003 41.5258 24.8129 40.8132C25.5256 40.1006 26.4921 39.7002 27.5 39.7002C28.5078 39.7002 29.4743 40.1006 30.187 40.8132C30.8996 41.5258 31.3 42.4924 31.3 43.5002C31.3 44.508 30.8996 45.4746 30.187 46.1872C29.4743 46.8998 28.5078 47.3002 27.5 47.3002C26.4921 47.3002 25.5256 46.8998 24.8129 46.1872C24.1003 45.4746 23.7 44.508 23.7 43.5002Z" fill="white"/>
</svg>
