<svg width="70" height="69" viewBox="0 0 70 69" fill="none" xmlns="http://www.w3.org/2000/svg">
<circle cx="35.3592" cy="34.4729" r="34.4729" fill="#516BEB"/>
<path fill-rule="evenodd" clip-rule="evenodd" d="M37.4141 20.0831C37.7911 20.2002 38.1205 20.4329 38.3542 20.7475C38.588 21.062 38.7141 21.442 38.7141 21.8321V30.9988H46.1422C46.4818 30.9987 46.8151 31.0905 47.1055 31.2643C47.396 31.4381 47.6327 31.6873 47.7897 31.9847C47.9467 32.282 48.0181 32.6162 47.9961 32.9509C47.9741 33.2855 47.8596 33.6078 47.6649 33.8826L34.6657 52.216C34.4395 52.536 34.1157 52.7764 33.7416 52.9021C33.3674 53.0279 32.9623 53.0326 32.5853 52.9154C32.2083 52.7982 31.879 52.5653 31.6453 52.2506C31.4116 51.9359 31.2857 51.5557 31.286 51.1655V41.9988H23.8579C23.5182 41.999 23.1849 41.9071 22.8945 41.7333C22.604 41.5595 22.3673 41.3103 22.2103 41.013C22.0533 40.7156 21.9819 40.3814 22.0039 40.0467C22.0259 39.7121 22.1405 39.3898 22.3351 39.115L35.3343 20.7816C35.5608 20.4622 35.8847 20.2225 36.2587 20.0972C36.6327 19.9719 37.0375 19.9676 37.4141 20.085V20.0831Z" fill="white"/>
</svg>
