<svg width="70" height="69" viewBox="0 0 70 69" fill="none" xmlns="http://www.w3.org/2000/svg">
<circle cx="35.3592" cy="34.4729" r="34.4729" fill="#516BEB"/>
<path d="M22.7795 23.466C22.7795 23.049 22.9452 22.649 23.2401 22.3541C23.535 22.0592 23.935 21.8936 24.352 21.8936H27.7375C28.1097 21.8937 28.4698 22.0259 28.7537 22.2666C29.0376 22.5073 29.2269 22.841 29.2879 23.2081L30.4515 30.1819C30.5071 30.5141 30.4546 30.8553 30.3018 31.1553C30.1489 31.4554 29.9038 31.6984 29.6024 31.8487L27.1682 33.0642C28.0411 35.2274 29.3411 37.1924 30.9905 38.8418C32.6399 40.4912 34.6049 41.7912 36.7681 42.664L37.9851 40.2299C38.1353 39.9288 38.3781 39.6839 38.6779 39.531C38.9776 39.3782 39.3185 39.3255 39.6503 39.3808L46.6242 40.5444C46.9913 40.6054 47.3249 40.7947 47.5657 41.0786C47.8064 41.3625 47.9386 41.7226 47.9387 42.0948V45.4803C47.9387 45.8973 47.7731 46.2973 47.4782 46.5922C47.1833 46.8871 46.7833 47.0527 46.3663 47.0527H43.2214C31.9312 47.0527 22.7795 37.9011 22.7795 26.6109V23.466Z" fill="white"/>
</svg>
